<?xml version="1.0" encoding="utf-8"?>
<!-- Generator: Adobe Illustrator 16.0.0, SVG Export Plug-In . SVG Version: 6.00 Build 0)  -->
<!DOCTYPE svg PUBLIC "-//W3C//DTD SVG 1.1//EN" "http://www.w3.org/Graphics/SVG/1.1/DTD/svg11.dtd">
<svg version="1.1" id="Calque_1" xmlns="http://www.w3.org/2000/svg" xmlns:xlink="http://www.w3.org/1999/xlink" x="0px" y="0px"
	 width="267.36px" height="77.587px" viewBox="0 -3.587 267.36 77.587" enable-background="new 0 -3.587 267.36 77.587"
	 xml:space="preserve">
<g>
	<path fill="#D2A970" d="M78.041,53.199c0.168,0.242,0.359,0.407,0.568,0.497c0.211,0.09,0.463,0.134,0.752,0.134
		c0.17,0,0.336-0.019,0.498-0.058s0.307-0.101,0.436-0.185c0.127-0.085,0.23-0.195,0.309-0.33c0.076-0.136,0.115-0.301,0.115-0.494
		c0-0.17-0.029-0.312-0.088-0.429c-0.057-0.116-0.137-0.212-0.238-0.29s-0.221-0.14-0.355-0.186
		c-0.137-0.046-0.279-0.083-0.428-0.112c-0.111-0.019-0.219-0.043-0.324-0.072c-0.104-0.029-0.195-0.062-0.275-0.103
		c-0.08-0.037-0.143-0.082-0.189-0.133c-0.045-0.052-0.068-0.112-0.068-0.186c0-0.078,0.02-0.146,0.061-0.208
		c0.041-0.06,0.094-0.109,0.158-0.148c0.062-0.038,0.133-0.066,0.213-0.087c0.08-0.02,0.158-0.029,0.236-0.029
		c0.17,0,0.312,0.038,0.432,0.112c0.119,0.075,0.213,0.174,0.287,0.295l0.473-0.312c-0.117-0.219-0.277-0.376-0.484-0.473
		c-0.205-0.097-0.43-0.146-0.67-0.146c-0.16,0-0.316,0.021-0.465,0.066c-0.15,0.043-0.287,0.105-0.408,0.188
		c-0.119,0.083-0.217,0.187-0.289,0.313c-0.072,0.125-0.109,0.271-0.109,0.435c0,0.174,0.033,0.316,0.098,0.429
		c0.066,0.111,0.152,0.202,0.262,0.271c0.109,0.071,0.236,0.127,0.381,0.171c0.146,0.044,0.297,0.083,0.457,0.116
		c0.094,0.02,0.182,0.041,0.27,0.064c0.086,0.026,0.164,0.058,0.232,0.099s0.121,0.091,0.162,0.149s0.062,0.133,0.062,0.225
		s-0.021,0.171-0.064,0.236c-0.045,0.065-0.104,0.119-0.174,0.163c-0.074,0.044-0.154,0.075-0.244,0.094
		c-0.09,0.021-0.178,0.03-0.266,0.03c-0.203,0-0.371-0.042-0.504-0.124s-0.256-0.193-0.367-0.334L78.041,53.199z M77.83,49.279
		c-0.219-0.286-0.488-0.491-0.809-0.617c-0.322-0.125-0.658-0.188-1.006-0.188c-0.383,0-0.732,0.069-1.053,0.211
		c-0.318,0.139-0.596,0.331-0.828,0.573c-0.232,0.241-0.412,0.526-0.541,0.856c-0.127,0.329-0.191,0.682-0.191,1.06
		c0,0.392,0.066,0.752,0.199,1.082c0.133,0.328,0.316,0.613,0.551,0.853c0.236,0.239,0.512,0.427,0.832,0.562
		s0.662,0.204,1.031,0.204c0.412,0,0.779-0.073,1.105-0.219c0.328-0.146,0.607-0.372,0.84-0.683l-0.457-0.385
		c-0.184,0.232-0.4,0.41-0.646,0.534c-0.246,0.123-0.527,0.186-0.842,0.186c-0.291,0-0.555-0.056-0.795-0.168
		c-0.24-0.111-0.445-0.262-0.617-0.454c-0.172-0.19-0.307-0.415-0.402-0.675c-0.098-0.258-0.145-0.538-0.145-0.838
		c0-0.281,0.047-0.551,0.145-0.81c0.096-0.259,0.232-0.486,0.406-0.683c0.174-0.195,0.381-0.352,0.619-0.468
		c0.24-0.116,0.504-0.175,0.789-0.175c0.246,0,0.482,0.053,0.711,0.157c0.227,0.104,0.418,0.261,0.574,0.468L77.83,49.279z
		 M72.104,53.743h0.609v-5.14h-0.609V53.743z M68.256,53.743h0.566v-1.655c0-0.193,0.02-0.37,0.061-0.529
		c0.041-0.16,0.105-0.298,0.189-0.414c0.084-0.115,0.193-0.206,0.326-0.268c0.133-0.063,0.291-0.096,0.475-0.096
		c0.268,0,0.463,0.083,0.59,0.248c0.125,0.164,0.188,0.39,0.188,0.675v2.039h0.566v-2.098c0-0.203-0.025-0.391-0.076-0.562
		s-0.129-0.318-0.236-0.439c-0.105-0.12-0.24-0.215-0.402-0.282c-0.162-0.068-0.355-0.103-0.576-0.103
		c-0.131,0-0.254,0.018-0.371,0.052c-0.117,0.033-0.221,0.077-0.316,0.131c-0.094,0.053-0.174,0.112-0.242,0.177
		c-0.068,0.065-0.121,0.132-0.16,0.2h-0.014v-2.562h-0.566V53.743z M67.842,50.346H66.84v-0.965h-0.566v0.965h-0.74v0.48h0.74v1.865
		c0,0.174,0.012,0.332,0.033,0.475c0.021,0.144,0.066,0.263,0.135,0.359c0.066,0.097,0.162,0.172,0.283,0.225
		c0.121,0.055,0.281,0.08,0.484,0.08c0.107,0,0.221-0.01,0.338-0.028c0.119-0.02,0.227-0.052,0.324-0.094l-0.021-0.517
		c-0.078,0.039-0.16,0.068-0.246,0.087c-0.088,0.021-0.174,0.03-0.256,0.03c-0.125,0-0.223-0.021-0.289-0.062
		c-0.068-0.041-0.119-0.097-0.154-0.167c-0.033-0.07-0.053-0.152-0.059-0.247c-0.004-0.094-0.006-0.196-0.006-0.309v-1.697h1.002
		V50.346z M64.67,52.11v0.218c-0.006,0.14-0.029,0.271-0.072,0.396c-0.045,0.124-0.107,0.231-0.189,0.322
		c-0.082,0.093-0.186,0.166-0.309,0.223c-0.123,0.056-0.268,0.083-0.432,0.083c-0.213,0-0.391-0.044-0.533-0.134
		s-0.215-0.24-0.215-0.454c0-0.232,0.107-0.399,0.32-0.501s0.5-0.152,0.863-0.152H64.67z M62.818,51.152
		c0.135-0.126,0.291-0.219,0.469-0.28c0.176-0.061,0.355-0.091,0.539-0.091c0.268,0,0.475,0.063,0.621,0.189
		c0.148,0.126,0.223,0.312,0.223,0.56v0.101h-0.219c-0.207,0-0.436,0.01-0.686,0.028c-0.25,0.021-0.48,0.069-0.697,0.146
		c-0.215,0.078-0.395,0.196-0.541,0.356c-0.145,0.16-0.217,0.38-0.217,0.66c0,0.165,0.033,0.31,0.102,0.437
		c0.066,0.125,0.158,0.23,0.271,0.315c0.115,0.084,0.248,0.148,0.4,0.192c0.152,0.043,0.314,0.064,0.488,0.064
		c0.262,0,0.486-0.056,0.674-0.166c0.186-0.112,0.334-0.254,0.445-0.429h0.014c0,0.073,0.002,0.155,0.004,0.251
		c0.002,0.094,0.014,0.181,0.033,0.257h0.545c-0.016-0.087-0.027-0.183-0.037-0.286c-0.01-0.104-0.014-0.204-0.014-0.301v-1.46
		c0-0.483-0.111-0.845-0.334-1.081c-0.223-0.237-0.586-0.356-1.09-0.356c-0.246,0-0.49,0.043-0.729,0.128
		c-0.24,0.084-0.447,0.217-0.621,0.395L62.818,51.152z M56.314,53.743h0.609v-4.312h0.016l1.844,4.312h0.369l1.844-4.312h0.016
		v4.312h0.609v-5.14h-0.885l-1.758,4.029h-0.016l-1.742-4.029h-0.906V53.743z"/>
	<rect x="96.033" y="-1.681" fill="#D2A970" width="0.988" height="73.294"/>
	<path fill="#404041" d="M69.975,13.012v13.052c0.186-0.025,0.369-0.052,0.555-0.077v-13.53H62.41l-3.25-5.261h28.039l-3.289,5.261
		h-8.119V25.46c0.184-0.013,0.369-0.026,0.555-0.038v-12.41h7.873l3.98-6.371H58.166l3.934,6.371H69.975z"/>
	<path fill="#404041" d="M18.263,36.574c0.12,0,0.237-0.012,0.353-0.03c0.532,1.032,1.215,1.973,2.028,2.785
		c2.023,2.024,4.827,3.275,7.928,3.275h0.063c0.103,0.432,0.323,0.821,0.626,1.125c0.426,0.427,1.022,0.693,1.673,0.692
		c0.652,0.001,1.247-0.266,1.673-0.692c0.427-0.427,0.694-1.022,0.693-1.675c0.001-0.65-0.266-1.246-0.693-1.672
		c-0.426-0.428-1.021-0.693-1.673-0.693c-0.651,0-1.247,0.266-1.673,0.693c-0.364,0.363-0.609,0.85-0.674,1.389h-0.016
		c-2.875,0-5.464-1.156-7.34-3.03c-0.723-0.723-1.336-1.555-1.82-2.465c0.193-0.107,0.37-0.24,0.524-0.395
		c0.427-0.426,0.693-1.022,0.693-1.673s-0.266-1.247-0.693-1.673c-0.426-0.427-1.021-0.693-1.672-0.693
		c-0.652,0-1.247,0.266-1.673,0.693c-0.427,0.426-0.694,1.022-0.693,1.673C15.896,35.515,16.955,36.573,18.263,36.574
		 M32.089,42.055c-0.001,0.321-0.129,0.606-0.339,0.816c-0.21,0.21-0.495,0.338-0.816,0.338c-0.32,0-0.605-0.128-0.816-0.338
		c-0.209-0.21-0.337-0.495-0.338-0.816c0.001-0.319,0.129-0.604,0.338-0.815c0.211-0.209,0.496-0.338,0.816-0.338
		c0.321,0,0.605,0.129,0.816,0.338C31.96,41.45,32.088,41.735,32.089,42.055 M17.446,33.392c0.211-0.209,0.496-0.337,0.817-0.337
		c0.32,0,0.605,0.128,0.815,0.337c0.21,0.211,0.338,0.496,0.338,0.816c0,0.32-0.128,0.605-0.338,0.816
		c-0.21,0.209-0.495,0.337-0.815,0.337c-0.321,0-0.606-0.128-0.817-0.337c-0.21-0.211-0.338-0.496-0.338-0.816
		C17.108,33.887,17.236,33.603,17.446,33.392"/>
	<path fill="#404041" d="M17.785,30.574c0.229,0,0.416-0.186,0.416-0.416v-0.173V17.653c0.001-2.847,1.155-5.424,3.031-7.293
		c1.875-1.869,4.465-3.024,7.34-3.024h24.753v5.546L46.965,23.15v-9.509H28.571c-1.096,0-2.1,0.458-2.825,1.186
		c-0.728,0.727-1.186,1.73-1.186,2.826v13.748c-0.001,1.119,0.457,2.126,1.187,2.847c0.729,0.722,1.732,1.165,2.824,1.165h14.382
		c1.115,0.001,2.123-0.442,2.846-1.166c0.633-0.632,1.051-1.481,1.146-2.43h3.809c0.02,0.089,0.045,0.175,0.078,0.257
		c0.227,0.565,0.777,0.964,1.422,0.965c0.848-0.001,1.533-0.687,1.533-1.533c0-0.135-0.02-0.266-0.051-0.391l0.031-0.036
		l0.016-0.022c0.018-0.026,0.039-0.049,0.059-0.072h-0.146c-0.031-0.088-0.072-0.173-0.119-0.254
		c-0.266-0.453-0.758-0.758-1.322-0.758c-0.662,0-1.227,0.422-1.439,1.012h-4.682v0.416c0,0.895-0.352,1.685-0.922,2.257
		c-0.572,0.572-1.363,0.922-2.258,0.923H28.571c-0.865-0.001-1.659-0.351-2.239-0.925c-0.58-0.575-0.94-1.365-0.941-2.255V17.653
		c0-0.861,0.361-1.656,0.943-2.237c0.582-0.582,1.376-0.943,2.237-0.943h17.562v10.47h0.701l7.322-11.824V6.503H28.571
		c-3.101,0-5.904,1.249-7.928,3.267c-2.024,2.018-3.275,4.808-3.275,7.883v12.333v0.173C17.368,30.388,17.555,30.574,17.785,30.574
		 M52.254,30.7c0.225,0,0.424,0.09,0.57,0.236l0.041,0.049c0.016,0.018,0.031,0.035,0.045,0.054c0.094,0.132,0.15,0.291,0.15,0.467
		c0,0.035-0.006,0.069-0.01,0.103c-0.023,0.181-0.102,0.343-0.227,0.467c-0.146,0.146-0.346,0.235-0.57,0.236
		c-0.334,0-0.619-0.205-0.742-0.495c-0.01-0.025-0.018-0.054-0.023-0.081c-0.023-0.073-0.039-0.149-0.039-0.229
		c0-0.2,0.076-0.38,0.197-0.521C51.793,30.812,52.01,30.701,52.254,30.7"/>
	<path fill="#404041" d="M8.316,9.035c0.7-0.001,1.3-0.42,1.567-1.02c0.75,0.333,1.422,0.751,1.986,1.238
		c0.689,0.594,1.217,1.287,1.553,2.042c-0.354,0.232-0.588,0.631-0.588,1.087c0,0.714,0.576,1.293,1.29,1.298
		c-0.187,0.004-0.338,0.158-0.338,0.345v0.509v25.333c-0.001,0.026-0.005,0.043-0.011,0.056l-0.044,0.049
		c-0.021,0.013-0.05,0.021-0.076,0.021l-0.053-0.013c-0.016-0.008-0.029-0.02-0.047-0.047l-4.892-7.842v-22V9.628V9.584
		c0-0.192-0.154-0.347-0.346-0.347c-0.176,0-0.321,0.132-0.342,0.303L7.969,9.539v0.045v0.509v22.199l0.052,0.083l4.945,7.926
		c0.078,0.127,0.187,0.226,0.307,0.29c0.123,0.065,0.253,0.096,0.381,0.096c0.207-0.001,0.406-0.075,0.562-0.218
		c0.078-0.071,0.145-0.159,0.19-0.263c0.046-0.103,0.071-0.219,0.07-0.339V14.535v-0.509c0-0.188-0.15-0.341-0.338-0.345
		c0.713-0.005,1.29-0.583,1.29-1.298c0-0.717-0.58-1.298-1.298-1.298l-0.042,0.002c-0.381-0.89-0.99-1.688-1.768-2.359
		c-0.654-0.564-1.43-1.036-2.29-1.403V7.318c0-0.948-0.768-1.716-1.716-1.716c-0.949,0-1.716,0.769-1.717,1.716
		C6.6,8.267,7.367,9.034,8.316,9.035 M14.131,12.953c-0.315,0-0.57-0.256-0.571-0.571c0.001-0.315,0.256-0.57,0.571-0.571
		c0.316,0.001,0.571,0.256,0.571,0.571C14.703,12.697,14.447,12.953,14.131,12.953 M7.788,6.79c0.136-0.136,0.32-0.218,0.528-0.219
		C8.523,6.572,8.707,6.654,8.844,6.79C8.98,6.927,9.063,7.111,9.063,7.318c0,0.207-0.083,0.391-0.219,0.528
		c-0.137,0.136-0.32,0.219-0.528,0.219c-0.208,0-0.392-0.083-0.528-0.219C7.652,7.71,7.569,7.525,7.569,7.318
		C7.569,7.111,7.652,6.927,7.788,6.79"/>
	<path fill="#404041" d="M74.238,41.316v0.007v0.01v0.001c0,0.939,0.758,1.705,1.697,1.716h0.02c0.939,0,1.707-0.757,1.715-1.698
		l0.002-0.017l-0.002-0.017l0,0c-0.006-0.805-0.568-1.479-1.324-1.656v-9.285c-0.186,0.011-0.371,0.022-0.555,0.035v9.213
		c-0.623,0.06-1.146,0.451-1.396,0.996c-0.746-0.341-1.414-0.766-1.973-1.258c-0.684-0.602-1.203-1.299-1.533-2.06
		c0.357-0.229,0.596-0.625,0.6-1.081v-0.016v-0.013l0,0c-0.008-0.704-0.576-1.275-1.285-1.282h-0.014
		c-0.699,0-1.268,0.554-1.295,1.25l0,0l-0.002,0.034v0.001v0.005v0.008c0,0.711,0.572,1.291,1.285,1.298h0.014l0.029-0.001
		c0.371,0.894,0.973,1.699,1.742,2.375c0.648,0.571,1.42,1.051,2.275,1.427V41.316L74.238,41.316z M70.189,35.64h0.008
		c0.312,0.002,0.564,0.257,0.564,0.57v0.007c-0.002,0.312-0.258,0.565-0.57,0.565h-0.006c-0.314-0.003-0.564-0.258-0.566-0.569
		v-0.008C69.623,35.891,69.879,35.639,70.189,35.64 M75.955,40.587h0.008c0.408,0.004,0.738,0.338,0.738,0.746l0,0v0.01
		c-0.004,0.409-0.338,0.738-0.746,0.738h-0.008c-0.41-0.004-0.738-0.339-0.74-0.746v-0.009
		C75.211,40.916,75.547,40.587,75.955,40.587"/>
	<path fill="#404041" d="M70.529,34.12v-0.411v-0.355v-2.405c-0.186,0.027-0.371,0.055-0.555,0.083v2.322v0.333v0.434
		c0,0.153,0.125,0.278,0.277,0.278S70.529,34.273,70.529,34.12"/>
	<path fill="#404041" d="M85.109,27.137c-0.135-0.062-0.301-0.102-0.5-0.118c-0.072-0.006-0.15-0.01-0.232-0.01l0,0
		c-0.02,0-0.041,0-0.064,0c-2.666,0-5.32,0.112-7.967,0.342c-0.186,0.017-0.371,0.033-0.555,0.05
		c-1.562,0.145-3.123,0.33-4.678,0.562c-0.195,0.028-0.389,0.06-0.584,0.091c-0.125,0.02-0.25,0.038-0.375,0.058
		c-0.059,0.01-0.119,0.021-0.18,0.031c-0.26,0.043-0.52,0.088-0.777,0.134c-0.318,0.057-0.637,0.116-0.955,0.18
		c-0.316,0.061-0.631,0.126-0.947,0.192c-0.314,0.067-0.629,0.136-0.941,0.208c-0.312,0.071-0.625,0.146-0.938,0.222
		c-0.311,0.076-0.621,0.156-0.93,0.237c-0.311,0.082-0.619,0.166-0.926,0.251c-0.309,0.086-0.615,0.176-0.922,0.267
		c-0.305,0.091-0.609,0.185-0.914,0.281s-0.605,0.195-0.908,0.296c-0.303,0.102-0.604,0.205-0.902,0.312
		c-0.301,0.106-0.6,0.215-0.898,0.326c-0.299,0.111-0.596,0.226-0.891,0.341c-0.297,0.117-0.592,0.235-0.887,0.357
		c-0.293,0.121-0.588,0.245-0.881,0.371c-0.291,0.127-0.582,0.255-0.873,0.387c-0.291,0.131-0.58,0.266-0.869,0.402
		c-0.287,0.136-0.576,0.275-0.861,0.417c-0.287,0.142-0.572,0.286-0.855,0.433c-0.287,0.148-0.57,0.298-0.852,0.45
		c-0.283,0.152-0.564,0.307-0.846,0.465c-0.281,0.157-0.561,0.318-0.838,0.48c-0.281,0.164-0.559,0.324-0.82,0.492
		c-0.162,0.106-0.328,0.195-0.49,0.278c-0.084,0.043-0.15,0.072-0.197,0.097l-0.045,0.039c-0.08,0.064-0.156,0.108-0.217,0.144
		c-0.062,0.035-0.107,0.062-0.141,0.085c-0.096,0.066-0.203,0.151-0.332,0.24c-0.146,0.102-0.293,0.185-0.43,0.263
		c-0.357,0.206-0.703,0.389-1.012,0.597c-0.15,0.1-0.3,0.2-0.449,0.3c-0.297,0.198-0.593,0.396-0.889,0.593
		c-0.293,0.197-0.586,0.392-0.877,0.588c-0.289,0.193-0.578,0.387-0.867,0.581c-4.145,2.785-8.229,5.713-12.822,7.929
		c-4.771,2.303-9.81,3.733-15.094,4.369c-2.188,0.263-4.376,0.423-6.574,0.503c0.001-0.454,0.001-0.909,0.002-1.363H9.085V50.5
		v-7.61c0.803-0.229,1.391-0.969,1.391-1.847c0-1.062-0.86-1.921-1.922-1.922c-1.062,0.001-1.922,0.861-1.923,1.922
		c0.001,0.893,0.608,1.639,1.43,1.856c0,2.542,0,5.083,0,7.624v1.757c-0.647-0.023-1.277-0.161-1.881-0.364v1.207
		c0.128,0.043,0.257,0.086,0.384,0.125c0.478,0.148,0.978,0.235,1.497,0.321v0.699c0,0.37,0.021,0.713,0.061,1.03
		c0.275,2.175,1.517,3.101,4.043,3.101c8.139-0.001,16.278,0.007,24.417-0.015c0.73-0.002,0.892,0.155,0.638,0.869
		c-0.757,2.126-1.478,4.266-2.162,6.416c-0.173,0.544-0.406,0.731-0.978,0.734c-2.654,0.012-3.841,1.238-3.838,3.896
		c0,0.234,0.038,0.478-0.006,0.704c-0.182,0.942,0.269,1.091,1.111,1.089c10.049-0.027,20.098-0.018,30.146-0.018
		c1.85,0,1.85,0,1.852-1.821c0.002-2.603-1.207-3.856-3.795-3.848c-0.621,0.003-0.861-0.21-1.041-0.778
		c-0.654-2.068-1.367-4.117-2.055-6.175c-0.352-1.056-0.348-1.058,0.773-1.058c8.109,0.002,16.219,0.003,24.328,0.003
		c2.713,0,3.969-1.267,3.969-4.002c0-3.101,0-6.201,0-9.302h-2.039h-0.512c-0.811-0.002-1.621-0.002-2.432-0.002
		c-11.246-0.02-22.492-0.016-33.738-0.016h-0.696c-0.166-0.893-0.948-1.568-1.889-1.568c-1.062,0-1.923,0.861-1.923,1.923
		s0.861,1.922,1.923,1.923c0.821-0.001,1.519-0.516,1.796-1.24c0.287,0,0.573,0,0.859,0c12.166,0,24.33,0.01,36.494-0.02
		c0.875-0.001,1.162,0.188,1.137,1.108c-0.068,2.495-0.014,4.995-0.029,7.492c-0.012,1.75-0.924,2.654-2.68,2.655
		c-23.33,0.004-46.661,0.004-69.991,0c-0.028,0-0.053-0.002-0.081-0.003c-1.74-0.028-2.606-0.932-2.615-2.727
		c-0.001-0.294,0-0.587-0.001-0.88c2.894-0.062,5.772-0.303,8.625-0.76c6.26-1.001,12.094-3.101,17.522-6.297
		c4.303-2.532,8.327-5.498,12.543-8.231c0.566-0.368,1.139-0.723,1.715-1.073l0.016,0.025l0,0l0.02-0.011l0.014-0.012l0.002-0.001
		l-0.02-0.021c5.307-3.214,10.98-5.631,17.129-7.033c1.098-0.25,2.199-0.469,3.303-0.659c0.186-0.033,0.369-0.062,0.555-0.092
		c1.748-0.287,3.502-0.506,5.262-0.669c0.184-0.017,0.369-0.034,0.555-0.049c2.615-0.225,5.242-0.331,7.875-0.359
		c0.143-0.001,0.273-0.011,0.396-0.025c0.152-0.019,0.291-0.047,0.416-0.089c0.182-0.063,0.338-0.153,0.49-0.289v-0.608
		C85.398,27.316,85.266,27.21,85.109,27.137 M44.892,46.106c-0.174,0.173-0.409,0.279-0.674,0.279s-0.5-0.106-0.674-0.279
		c-0.173-0.175-0.278-0.409-0.28-0.674c0.002-0.265,0.107-0.5,0.28-0.674c0.174-0.173,0.409-0.278,0.674-0.278
		s0.5,0.105,0.674,0.278c0.173,0.174,0.278,0.409,0.28,0.674C45.17,45.697,45.064,45.932,44.892,46.106 M7.601,41.043
		c0-0.265,0.105-0.499,0.279-0.673c0.174-0.174,0.409-0.279,0.674-0.279s0.5,0.105,0.674,0.279s0.279,0.408,0.28,0.673
		c-0.001,0.266-0.106,0.5-0.28,0.674c-0.059,0.06-0.127,0.106-0.2,0.148c-0.139,0.081-0.299,0.132-0.474,0.132
		c-0.182,0-0.349-0.054-0.492-0.142c-0.065-0.039-0.127-0.084-0.182-0.139C7.707,41.543,7.601,41.309,7.601,41.043 M49.109,36.691
		L49.109,36.691l0.002-0.001L49.109,36.691z"/>
	<polygon fill="#404041" points="10.801,55.919 10.806,55.921 10.815,55.923 10.816,55.924 10.816,55.924 10.85,55.754 
		10.803,55.92 10.828,55.834 	"/>
	<path fill="#404041" d="M42.22,52.234c1.524-0.013,3.05-0.005,4.575-0.005s3.051-0.003,4.576,0.002
		c0.346,0.001,0.639-0.007,0.658-0.482c0.021-0.51-0.264-0.567-0.664-0.565c-3.051,0.005-6.101,0.002-9.151,0.002
		c-0.335,0-0.646-0.005-0.658,0.479C41.543,52.165,41.809,52.237,42.22,52.234"/>
	<path fill="#021B28" d="M239.117,66.072c-1.02,0-1.771-0.74-1.771-1.747s0.752-1.747,1.771-1.747c1.008,0,1.762,0.74,1.762,1.747
		S240.125,66.072,239.117,66.072 M239.117,66.65c1.385,0,2.41-0.986,2.41-2.325c0-1.337-1.025-2.325-2.41-2.325
		c-1.396,0-2.422,0.994-2.422,2.325C236.695,65.657,237.721,66.65,239.117,66.65 M234.502,66.65c0.707,0,1.318-0.246,1.732-0.714
		l-0.422-0.409c-0.35,0.371-0.779,0.545-1.279,0.545c-1.025,0-1.785-0.74-1.785-1.747s0.76-1.747,1.785-1.747
		c0.5,0,0.93,0.169,1.279,0.54l0.422-0.409C235.82,62.241,235.209,62,234.508,62c-1.383,0-2.41,0.981-2.41,2.325
		C232.098,65.67,233.125,66.65,234.502,66.65 M229.904,66.65c0.707,0,1.318-0.246,1.734-0.714l-0.422-0.409
		c-0.352,0.371-0.781,0.545-1.281,0.545c-1.025,0-1.785-0.74-1.785-1.747s0.76-1.747,1.785-1.747c0.5,0,0.93,0.169,1.281,0.54
		l0.422-0.409C231.223,62.241,230.611,62,229.91,62c-1.383,0-2.408,0.981-2.408,2.325C227.502,65.67,228.527,66.65,229.904,66.65
		 M224.469,66.072c-1.02,0-1.773-0.74-1.773-1.747s0.754-1.747,1.773-1.747c1.006,0,1.76,0.74,1.76,1.747
		S225.475,66.072,224.469,66.072 M224.469,66.65c1.383,0,2.41-0.986,2.41-2.325c0-1.337-1.027-2.325-2.41-2.325
		c-1.396,0-2.424,0.994-2.424,2.325C222.045,65.657,223.072,66.65,224.469,66.65 M219.449,64.663h-1.104v-2.045h1.104
		c0.832,0,1.268,0.37,1.268,1.02S220.281,64.663,219.449,64.663 M221.443,66.599l-1.078-1.526c0.637-0.227,1-0.733,1-1.435
		c0-0.987-0.715-1.585-1.896-1.585h-1.773v4.546h0.65v-1.383h1.123c0.098,0,0.195-0.007,0.285-0.014l0.98,1.396H221.443z
		 M214.293,66.072c-1.02,0-1.771-0.74-1.771-1.747s0.752-1.747,1.771-1.747c1.008,0,1.76,0.74,1.76,1.747
		S215.301,66.072,214.293,66.072 M214.293,66.65c1.385,0,2.41-0.986,2.41-2.325c0-1.337-1.025-2.325-2.41-2.325
		c-1.396,0-2.422,0.994-2.422,2.325C211.871,65.657,212.896,66.65,214.293,66.65 M210.879,66.599l-0.008-4.546h-0.531l-1.871,3.195
		l-1.896-3.195h-0.533v4.546h0.625v-3.292l1.643,2.74h0.299l1.643-2.761l0.006,3.312H210.879z M202.281,62.053v3.391l-2.729-3.391
		h-0.531v4.546h0.648v-3.39l2.729,3.39h0.531v-4.546H202.281z M197.008,66.599h0.65v-4.546h-0.65V66.599z M192.904,66.638
		c0.916,0,1.486-0.396,1.486-1.02c0-1.338-2.182-0.676-2.182-1.487c0-0.272,0.266-0.475,0.812-0.475
		c0.338,0,0.682,0.072,0.992,0.273l0.268-0.493c-0.299-0.195-0.807-0.312-1.254-0.312c-0.883,0-1.436,0.416-1.436,1.033
		c0,1.37,2.176,0.701,2.176,1.474c0,0.293-0.24,0.468-0.818,0.468c-0.447,0-0.916-0.149-1.209-0.357l-0.26,0.494
		C191.768,66.462,192.332,66.638,192.904,66.638 M189.346,66.599h0.643v-3.98h1.559v-0.565h-3.76v0.565h1.559V66.599z
		 M185.832,66.65c0.707,0,1.318-0.246,1.734-0.714l-0.422-0.409c-0.35,0.371-0.779,0.545-1.279,0.545
		c-1.027,0-1.787-0.74-1.787-1.747s0.76-1.747,1.787-1.747c0.5,0,0.93,0.169,1.279,0.54l0.422-0.409
		C187.15,62.241,186.539,62,185.84,62c-1.385,0-2.41,0.981-2.41,2.325C183.43,65.67,184.455,66.65,185.832,66.65 M181.787,66.599
		h0.648v-4.546h-0.648V66.599z M179.125,62.618v-0.565h-3.209v4.546h0.65v-1.838h2.279v-0.559h-2.279v-1.584H179.125z
		 M172.514,66.072c-1.02,0-1.773-0.74-1.773-1.747s0.754-1.747,1.773-1.747c1.008,0,1.762,0.74,1.762,1.747
		S173.521,66.072,172.514,66.072 M172.514,66.65c1.385,0,2.41-0.986,2.41-2.325c0-1.337-1.025-2.325-2.41-2.325
		c-1.395,0-2.422,0.994-2.422,2.325C170.092,65.657,171.119,66.65,172.514,66.65 M165.014,66.034v-1.468h2.279v-0.553h-2.279v-1.396
		h2.561v-0.565h-3.209v4.546h3.299v-0.564H165.014z M161.656,66.65c1.201,0,1.762-0.597,1.762-1.292
		c0-1.669-2.754-0.975-2.754-2.085c0-0.396,0.33-0.721,1.104-0.721c0.402,0,0.85,0.117,1.248,0.37l0.213-0.52
		c-0.377-0.26-0.928-0.403-1.461-0.403c-1.195,0-1.74,0.598-1.74,1.3c0,1.689,2.754,0.987,2.754,2.098
		c0,0.396-0.338,0.701-1.125,0.701c-0.584,0-1.162-0.221-1.5-0.525l-0.24,0.506C160.281,66.417,160.961,66.65,161.656,66.65
		 M157.078,66.65c1.203,0,1.924-0.694,1.924-2.014v-2.584h-0.631v2.559c0,1.007-0.467,1.461-1.285,1.461s-1.279-0.454-1.279-1.461
		v-2.559h-0.648v2.584C155.158,65.956,155.885,66.65,157.078,66.65 M149.748,66.034v-1.468h2.279v-0.553h-2.279v-1.396h2.559v-0.565
		h-3.209v4.546h3.301v-0.564H149.748z M147.086,62.053v1.955h-2.611v-1.955h-0.648v4.546h0.648v-2.026h2.611v2.026h0.65v-4.546
		H147.086z M140.918,66.599h0.643v-3.98h1.559v-0.565h-3.76v0.565h1.559V66.599z M137.611,62.053h-0.643l-1.461,2.396l-1.455-2.396
		h-0.693l1.805,2.962v1.584h0.643v-1.571L137.611,62.053z M131.391,66.072h-1.494V64.56h1.494c0.721,0,1.111,0.234,1.111,0.76
		C132.502,65.846,132.111,66.072,131.391,66.072 M131.229,62.578c0.662,0,1.039,0.247,1.039,0.729c0,0.48-0.377,0.727-1.039,0.727
		h-1.332v-1.455H131.229z M132.307,64.242c0.357-0.177,0.611-0.52,0.611-1.015c0-0.732-0.584-1.175-1.631-1.175h-2.039v4.546h2.17
		c1.148,0,1.74-0.448,1.74-1.227C133.158,64.768,132.82,64.384,132.307,64.242"/>
	<path fill="#021B28" d="M260.531,53.655v3.39l-2.729-3.39h-0.533v4.546h0.65v-3.39l2.729,3.39h0.531v-4.546H260.531z
		 M253.867,57.676c-1.018,0-1.771-0.741-1.771-1.747c0-1.007,0.754-1.748,1.771-1.748c1.008,0,1.762,0.741,1.762,1.748
		C255.629,56.935,254.875,57.676,253.867,57.676 M253.867,58.254c1.385,0,2.41-0.988,2.41-2.325c0-1.338-1.025-2.325-2.41-2.325
		c-1.396,0-2.422,0.993-2.422,2.325C251.445,57.26,252.471,58.254,253.867,58.254 M249.803,58.201h0.65v-4.546h-0.65V58.201z
		 M246.895,58.201h0.643V54.22h1.559v-0.564h-3.76v0.564h1.559V58.201z M242.174,56.545l0.98-2.228l0.98,2.228H242.174z
		 M244.861,58.201h0.682l-2.064-4.546h-0.643l-2.059,4.546h0.668l0.5-1.137h2.416L244.861,58.201z M238.914,58.254
		c0.707,0,1.318-0.248,1.734-0.714l-0.424-0.41c-0.35,0.37-0.777,0.546-1.277,0.546c-1.027,0-1.787-0.741-1.787-1.747
		c0-1.007,0.76-1.748,1.787-1.748c0.5,0,0.928,0.17,1.277,0.54l0.424-0.41c-0.416-0.467-1.027-0.707-1.729-0.707
		c-1.383,0-2.41,0.98-2.41,2.325S237.537,58.254,238.914,58.254 M233.627,58.254c1.201,0,1.924-0.695,1.924-2.014v-2.585h-0.631
		v2.56c0,1.007-0.467,1.461-1.285,1.461s-1.279-0.454-1.279-1.461v-2.56h-0.65v2.585C231.705,57.559,232.432,58.254,233.627,58.254
		 M227.031,57.637V54.22h1.227c1.123,0,1.844,0.688,1.844,1.709c0,1.02-0.721,1.708-1.844,1.708H227.031z M226.381,58.201h1.916
		c1.461,0,2.455-0.922,2.455-2.272c0-1.352-0.994-2.273-2.455-2.273h-1.916V58.201z M222.68,57.637v-1.468h2.279v-0.552h-2.279
		V54.22h2.559v-0.564h-3.209v4.546h3.301v-0.564H222.68z M217.576,58.254c1.201,0,1.76-0.598,1.76-1.292
		c0-1.67-2.754-0.976-2.754-2.085c0-0.397,0.332-0.722,1.104-0.722c0.404,0,0.852,0.117,1.248,0.37l0.215-0.52
		c-0.377-0.259-0.93-0.402-1.463-0.402c-1.195,0-1.74,0.598-1.74,1.299c0,1.688,2.754,0.987,2.754,2.098
		c0,0.396-0.338,0.702-1.123,0.702c-0.584,0-1.162-0.222-1.5-0.526l-0.24,0.507C216.199,58.021,216.881,58.254,217.576,58.254
		 M213.609,58.254c0.707,0,1.318-0.248,1.732-0.714l-0.422-0.41c-0.35,0.37-0.779,0.546-1.279,0.546
		c-1.025,0-1.785-0.741-1.785-1.747c0-1.007,0.76-1.748,1.785-1.748c0.5,0,0.93,0.17,1.279,0.54l0.422-0.41
		c-0.414-0.467-1.025-0.707-1.727-0.707c-1.385,0-2.41,0.98-2.41,2.325S212.23,58.254,213.609,58.254 M209.562,58.201h0.648v-4.546
		h-0.648V58.201z M206.654,58.201h0.643V54.22h1.559v-0.564h-3.76v0.564h1.559V58.201z M201.934,56.545l0.98-2.228l0.98,2.228
		H201.934z M204.621,58.201h0.682l-2.064-4.546h-0.643l-2.059,4.546h0.668l0.5-1.137h2.416L204.621,58.201z M199.863,58.201
		l-0.008-4.546h-0.533l-1.869,3.195l-1.896-3.195h-0.533v4.546h0.623v-3.293l1.643,2.741h0.301l1.643-2.761l0.006,3.312H199.863z
		 M191.322,57.637v-1.468h2.279v-0.552h-2.279V54.22h2.559v-0.564h-3.207v4.546h3.299v-0.564H191.322z M188.66,53.655v1.954h-2.611
		v-1.954H185.4v4.546h0.648v-2.025h2.611v2.025h0.65v-4.546H188.66z M182.492,58.201h0.643V54.22h1.559v-0.564h-3.76v0.564h1.559
		V58.201z M177.771,56.545l0.98-2.228l0.98,2.228H177.771z M180.459,58.201h0.682l-2.064-4.546h-0.643l-2.059,4.546h0.668l0.5-1.137
		h2.416L180.459,58.201z M175.699,58.201l-0.006-4.546h-0.533l-1.869,3.195l-1.896-3.195h-0.533v4.546h0.623v-3.293l1.645,2.741
		h0.299l1.643-2.761l0.006,3.312H175.699z M165.504,57.383c-0.324,0.208-0.682,0.293-1.064,0.293c-1.045,0-1.805-0.747-1.805-1.747
		c0-1.014,0.76-1.748,1.812-1.748c0.512,0,0.939,0.163,1.316,0.526l0.404-0.401c-0.416-0.462-1.027-0.702-1.748-0.702
		c-1.41,0-2.436,0.98-2.436,2.325s1.025,2.325,2.422,2.325c0.637,0,1.268-0.195,1.721-0.578v-1.773h-0.623V57.383z M160.342,53.655
		v3.39l-2.727-3.39h-0.533v4.546h0.65v-3.39l2.727,3.39h0.533v-4.546H160.342z M155.068,58.201h0.65v-4.546h-0.65V58.201z
		 M153.057,53.655v3.39l-2.727-3.39h-0.533v4.546h0.65v-3.39l2.727,3.39h0.533v-4.546H153.057z M146.096,57.637v-1.468h2.279v-0.552
		h-2.279V54.22h2.559v-0.564h-3.209v4.546h3.301v-0.564H146.096z M143.434,53.655v1.954h-2.611v-1.954h-0.65v4.546h0.65v-2.025
		h2.611v2.025h0.648v-4.546H143.434z M137.264,58.201h0.645V54.22h1.559v-0.564h-3.762v0.564h1.559V58.201z M134.498,57.383
		c-0.324,0.208-0.682,0.293-1.064,0.293c-1.045,0-1.807-0.747-1.807-1.747c0-1.014,0.762-1.748,1.812-1.748
		c0.514,0,0.941,0.163,1.318,0.526l0.402-0.401c-0.414-0.462-1.025-0.702-1.746-0.702c-1.41,0-2.436,0.98-2.436,2.325
		s1.025,2.325,2.422,2.325c0.637,0,1.268-0.195,1.721-0.578v-1.773h-0.623V57.383z M129.336,53.655v3.39l-2.729-3.39h-0.531v4.546
		h0.648v-3.39l2.729,3.39h0.531v-4.546H129.336z M122.375,57.637v-1.468h2.279v-0.552h-2.279V54.22h2.559v-0.564h-3.209v4.546h3.299
		v-0.564H122.375z M118.758,56.267h-1.104V54.22h1.104c0.832,0,1.268,0.371,1.268,1.021S119.59,56.267,118.758,56.267
		 M120.752,58.201l-1.078-1.525c0.637-0.229,1-0.734,1-1.436c0-0.987-0.715-1.585-1.896-1.585h-1.773v4.546h0.65v-1.383h1.123
		c0.098,0,0.195-0.007,0.285-0.014l0.98,1.396H120.752z M114.096,58.201h0.643V54.22h1.559v-0.564h-3.76v0.564h1.559V58.201z
		 M110.551,58.254c1.201,0,1.76-0.598,1.76-1.292c0-1.67-2.754-0.976-2.754-2.085c0-0.397,0.332-0.722,1.104-0.722
		c0.402,0,0.852,0.117,1.248,0.37l0.213-0.52c-0.375-0.259-0.928-0.402-1.461-0.402c-1.195,0-1.74,0.598-1.74,1.299
		c0,1.688,2.754,0.987,2.754,2.098c0,0.396-0.338,0.702-1.123,0.702c-0.586,0-1.164-0.222-1.5-0.526l-0.24,0.507
		C109.174,58.021,109.855,58.254,110.551,58.254"/>
	<path fill="#404041" d="M162.816,45.004c-0.316-0.604-0.475-1.265-0.475-1.982v-6.14c0-1.694-0.6-3.142-1.799-4.341
		c-1.199-1.2-2.646-1.799-4.342-1.799s-3.139,0.599-4.33,1.799c-1.191,1.199-1.787,2.646-1.787,4.341
		c0,1.695,0.596,3.143,1.787,4.341c1.191,1.199,2.635,1.799,4.33,1.799h1.789c1.781,0,3.109,0.87,3.984,2.607
		c0.244,0.532,0.367,1.105,0.367,1.723h-6.141c-3.49,0-6.32-1.442-8.488-4.33c-1.322-1.81-1.982-3.856-1.982-6.14
		c0-2.901,1.023-5.372,3.07-7.411c2.047-2.039,4.514-3.06,7.4-3.06h0.539c0.373,0.03,0.748,0.072,1.121,0.13
		c0.488,0.072,0.889,0.158,1.205,0.258c0.402,0.116,0.777,0.245,1.121,0.389c0.746,0.316,1.443,0.704,2.09,1.164l0.064,0.042
		c0.445,0.331,0.869,0.689,1.271,1.078c2.039,2.04,3.059,4.51,3.059,7.411v10.47C164.992,47.352,163.707,46.569,162.816,45.004"/>
	<path fill="#D2A970" d="M186.344,47.352h-5.193c-2.369,0-4.467-0.695-6.291-2.09c-2.801-2.168-4.199-4.962-4.199-8.38v-7.778
		h-4.439c0-0.545,0.137-1.055,0.41-1.529c0.746-1.322,2.09-2.206,4.029-2.651v-9.027c1.205,0,2.232,0.427,3.08,1.282
		c0.848,0.854,1.271,1.878,1.271,3.07v4.502h11.332c0,1.207-0.6,2.233-1.799,3.081c-1.199,0.848-2.654,1.271-4.363,1.271h-5.17
		v7.498c0,1.695,0.6,3.138,1.799,4.332c1.199,1.192,2.646,1.788,4.34,1.788h0.281c2.24,0,3.812,1.112,4.719,3.339
		C186.279,46.477,186.344,46.907,186.344,47.352"/>
	<path fill="#404041" d="M205.777,45.004c-0.316-0.617-0.473-1.285-0.473-2.004c0-4.223-0.008-6.405-0.023-6.55
		c-0.143-1.551-0.738-2.851-1.787-3.899c-1.191-1.207-2.635-1.81-4.33-1.81s-3.139,0.599-4.33,1.798
		c-1.193,1.2-1.789,2.647-1.789,4.342V43c0,0.719-0.164,1.387-0.496,2.004c-0.891,1.565-2.176,2.348-3.855,2.348v-30.83
		c1.207,0,2.232,0.424,3.08,1.271c0.848,0.848,1.271,1.868,1.271,3.06v7.54c0.445-0.33,0.912-0.617,1.4-0.861
		c1.48-0.746,3.053-1.121,4.719-1.121c2.197,0,4.223,0.64,6.076,1.918c0.416,0.288,0.861,0.668,1.334,1.142
		c2.041,2.04,3.061,4.51,3.061,7.411v10.47C207.953,47.352,206.668,46.569,205.777,45.004 M201.318,24.73
		c0.158,0.201,0.301,0.409,0.432,0.625L201.318,24.73z"/>
	<path fill="#D2A970" d="M211.984,20.723c0-1.206,0.424-2.233,1.27-3.081c0.848-0.847,1.875-1.271,3.082-1.271v26.65
		c0,1.193-0.428,2.212-1.281,3.059c-0.855,0.849-1.879,1.271-3.07,1.271V20.723z"/>
	<path fill="#D2A970" d="M234.176,47.352c-4.324,0-7.979-1.515-10.967-4.546c-3.016-3.016-4.523-6.664-4.523-10.944
		c0-4.38,1.572-8.093,4.719-11.139c3-2.901,6.592-4.353,10.771-4.353h11.332c0,1.207-0.424,2.234-1.271,3.082
		s-1.873,1.271-3.08,1.271h-6.594c-3.072,0-5.701,1.088-7.885,3.264s-3.273,4.801-3.273,7.875c0,3.074,1.09,5.702,3.273,7.886
		s4.812,3.274,7.885,3.274h6.594c1.207,0,2.232,0.424,3.08,1.271s1.271,1.867,1.271,3.059H234.176z"/>
	<path fill="#404041" d="M247.857,47.352c0-1.191,0.424-2.211,1.271-3.059s1.867-1.271,3.059-1.271h1.982
		c0.545,0,1.014-0.193,1.4-0.581c0.389-0.388,0.582-0.855,0.582-1.4c0-0.546-0.193-1.014-0.582-1.401
		c-0.387-0.387-0.855-0.581-1.4-0.581c-0.689,0-1.35-0.108-1.982-0.323c-1.105-0.374-2.031-0.991-2.779-1.853
		c-1.033-1.178-1.551-2.564-1.551-4.158c0-1.737,0.613-3.225,1.842-4.46c1.229-1.235,2.719-1.852,4.471-1.852h6.334
		c0,1.077-0.352,2.018-1.055,2.822c-0.877,1.02-1.977,1.53-3.297,1.53h-1.982c-0.545,0-1.012,0.19-1.4,0.571
		c-0.387,0.38-0.582,0.844-0.582,1.39s0.195,1.013,0.582,1.401c0.389,0.388,0.855,0.581,1.4,0.581c1.939,0,3.525,0.725,4.762,2.176
		c1.049,1.178,1.572,2.564,1.572,4.159c0,1.738-0.617,3.225-1.852,4.46c-1.236,1.235-2.73,1.852-4.482,1.852H247.857z"/>
	<path fill="#404041" d="M143.381,22.203v-5.832c-1.207,0-2.232,0.424-3.08,1.271c-0.359,0.374-0.646,0.797-0.861,1.272
		l-0.043-0.021l-2.416,3.928c1.742-0.088,3.479-0.24,5.205-0.461L143.381,22.203z"/>
	<polygon fill="#404041" points="133.881,16.629 133.838,16.629 133.881,16.694 	"/>
	<path fill="#404041" d="M135.422,25.353l-9.275,15.084L114.16,20.981c-1.213-0.435-2.414-0.897-3.604-1.391
		c1.084,0.292,2.17,0.57,3.26,0.832l-0.943-1.529l-0.021,0.021c-0.215-0.475-0.51-0.898-0.883-1.272
		c-0.848-0.847-1.867-1.271-3.059-1.271v30.98c1.191,0,2.211-0.423,3.059-1.271c0.848-0.847,1.271-1.865,1.271-3.059V27.789
		l9.395,15.232c0.314,0.503,0.695,0.919,1.141,1.25c0.719,0.503,1.508,0.775,2.371,0.818c0.861-0.043,1.645-0.315,2.348-0.818
		c0.459-0.331,0.848-0.747,1.164-1.25l9.371-15.232v15.232c0,1.193,0.424,2.212,1.271,3.059c0.848,0.849,1.873,1.271,3.08,1.271
		V25.278l-1.199,0.066C139.926,25.453,137.672,25.459,135.422,25.353"/>
	<path fill="#D2A970" d="M111.559,19.941c4.885,1.537,9.953,2.709,15.111,3.306c2.578,0.297,5.174,0.446,7.756,0.443l0.969-0.005
		l0.484-0.003l0.482-0.02l1.928-0.08l1.916-0.157l0.477-0.039c0.16-0.013,0.318-0.038,0.477-0.056l0.947-0.117
		c5.061-0.611,9.922-1.884,14.334-3.746c4.439-1.84,8.436-4.228,12.594-6.483c2.084-1.124,4.219-2.211,6.439-3.203
		c1.109-0.494,2.236-0.973,3.391-1.414c1.148-0.445,2.316-0.868,3.51-1.25c1.191-0.385,2.4-0.74,3.625-1.066
		c1.225-0.325,2.467-0.614,3.721-0.876c1.254-0.265,2.523-0.487,3.801-0.684c1.277-0.199,2.568-0.347,3.861-0.482
		c0.65-0.058,1.299-0.124,1.949-0.166c0.326-0.022,0.65-0.05,0.977-0.068l0.979-0.052c0.326-0.021,0.654-0.03,0.98-0.043
		l0.982-0.033l0.982-0.017c0.328-0.006,0.656-0.009,0.984-0.006c2.621,0.002,5.248,0.117,7.861,0.342
		c5.227,0.463,10.395,1.347,15.42,2.569c-5.094-1.015-10.264-1.769-15.455-2.096c-5.189-0.334-10.396-0.255-15.479,0.317
		c-1.268,0.151-2.531,0.315-3.779,0.528c-1.25,0.208-2.492,0.435-3.717,0.706c-1.225,0.269-2.439,0.562-3.635,0.892
		c-1.193,0.331-2.373,0.689-3.535,1.076c-1.16,0.389-2.305,0.801-3.43,1.242c-1.129,0.436-2.23,0.909-3.32,1.398
		c-2.176,0.981-4.273,2.06-6.34,3.18c-2.072,1.113-4.113,2.27-6.215,3.383c-1.051,0.556-2.113,1.101-3.199,1.625
		c-1.088,0.522-2.197,1.022-3.336,1.487c-2.277,0.929-4.668,1.721-7.141,2.339l-0.93,0.226c-0.311,0.072-0.625,0.137-0.939,0.206
		l-0.469,0.102l-0.475,0.092l-0.949,0.181l-1.92,0.295l-0.48,0.073l-0.238,0.037l-0.242,0.027l-0.973,0.106l-0.971,0.106
		c-0.162,0.017-0.324,0.039-0.488,0.049l-0.488,0.033l-1.959,0.131l-1.969,0.053l-0.492,0.012l-0.494-0.006l-0.986-0.014
		c-2.631-0.051-5.262-0.251-7.861-0.607C121.395,22.978,116.338,21.671,111.559,19.941"/>
	<path fill="#D2A970" d="M111.559,19.941c2.418,0.735,4.865,1.376,7.334,1.903c2.469,0.531,4.961,0.952,7.467,1.236
		c2.506,0.284,5.029,0.426,7.549,0.425c0.627,0,1.266-0.011,1.891-0.02l1.887-0.088c0.631-0.019,1.256-0.093,1.885-0.144
		l0.943-0.084c0.314-0.029,0.615-0.073,0.932-0.113c5.002-0.591,9.932-1.799,14.566-3.744c4.658-1.914,8.971-4.551,13.424-6.967
		c1.115-0.602,2.24-1.188,3.379-1.75c1.139-0.558,2.283-1.114,3.461-1.591l1.758-0.739c0.584-0.253,1.174-0.481,1.771-0.702
		c1.191-0.445,2.398-0.856,3.621-1.2c1.221-0.354,2.43-0.754,3.674-1.018l1.855-0.442c0.615-0.153,1.24-0.282,1.865-0.401
		c1.252-0.236,2.5-0.458,3.766-0.6l1.893-0.24c0.316-0.039,0.631-0.084,0.947-0.117l0.951-0.083
		c5.062-0.459,10.166-0.38,15.225,0.074c5.059,0.471,10.074,1.33,15.01,2.524L228.4,7.013c-4.939-0.987-9.932-1.725-14.953-2.069
		c-5.02-0.349-10.066-0.312-15.068,0.189c-0.312,0.035-0.625,0.06-0.936,0.103l-0.934,0.129l-1.867,0.257
		c-0.311,0.046-0.623,0.078-0.932,0.135l-0.926,0.174l-1.854,0.347c-0.307,0.062-0.619,0.108-0.924,0.183l-0.916,0.222l-1.832,0.445
		c-0.303,0.079-0.613,0.137-0.912,0.233l-0.902,0.272l-1.803,0.545c-0.605,0.167-1.191,0.397-1.783,0.606l-1.775,0.638l-0.443,0.159
		l-0.436,0.181l-0.869,0.364l-1.74,0.726c-2.305,1-4.547,2.15-6.77,3.344l-3.342,1.799l-1.67,0.899
		c-0.557,0.299-1.109,0.604-1.68,0.883l-1.701,0.855l-0.85,0.427c-0.287,0.139-0.574,0.271-0.863,0.404
		c-1.154,0.53-2.326,1.026-3.514,1.478c-2.375,0.904-4.818,1.639-7.295,2.194c-0.621,0.132-1.242,0.275-1.869,0.385
		c-0.312,0.056-0.623,0.119-0.938,0.17l-0.939,0.14l-0.939,0.14c-0.311,0.043-0.627,0.102-0.949,0.13l-1.889,0.196
		c-5.059,0.442-10.162,0.242-15.17-0.508c-2.504-0.385-4.984-0.903-7.432-1.545C116.34,21.594,113.928,20.825,111.559,19.941
		 M111.559,19.941c2.385,0.837,4.811,1.559,7.264,2.157c2.453,0.604,4.934,1.086,7.434,1.433c5,0.676,10.076,0.798,15.084,0.289
		l1.883-0.216c0.307-0.029,0.611-0.088,0.928-0.135l0.934-0.147l0.934-0.148c0.311-0.053,0.617-0.118,0.928-0.176
		c0.617-0.115,1.227-0.261,1.842-0.396c2.451-0.572,4.857-1.318,7.197-2.234c1.172-0.458,2.324-0.958,3.463-1.493
		c0.285-0.134,0.568-0.268,0.852-0.407l0.84-0.432l1.68-0.863c0.562-0.28,1.115-0.591,1.668-0.896l1.662-0.913l3.32-1.827
		c2.219-1.217,4.471-2.397,6.795-3.43l1.756-0.745l0.879-0.372l0.439-0.186l0.447-0.163l1.791-0.653
		c0.6-0.215,1.191-0.448,1.803-0.622l1.824-0.56l0.912-0.279c0.303-0.099,0.615-0.159,0.922-0.241l1.854-0.458l0.924-0.23
		c0.309-0.076,0.623-0.125,0.936-0.188l1.873-0.36l0.936-0.18c0.312-0.059,0.629-0.094,0.943-0.141l1.889-0.269l0.945-0.133
		c0.314-0.046,0.633-0.072,0.947-0.109c5.061-0.529,10.162-0.564,15.229-0.222c5.07,0.34,10.105,1.077,15.08,2.064l-0.211,0.952
		c-4.889-1.191-9.861-2.051-14.869-2.524c-5.006-0.46-10.051-0.535-15.062-0.105l-0.938,0.078c-0.311,0.031-0.623,0.075-0.934,0.111
		l-1.869,0.229c-1.248,0.134-2.49,0.349-3.725,0.576c-0.615,0.115-1.23,0.238-1.84,0.388l-1.836,0.428
		c-1.23,0.255-2.426,0.647-3.635,0.99c-1.213,0.335-2.4,0.734-3.58,1.168c-0.588,0.215-1.178,0.44-1.756,0.687l-1.742,0.719
		c-1.168,0.462-2.303,1.001-3.439,1.544c-1.133,0.548-2.254,1.119-3.369,1.707c-4.447,2.361-8.814,4.981-13.541,6.876
		c-4.709,1.924-9.705,3.107-14.744,3.648c-0.311,0.035-0.637,0.077-0.951,0.101l-0.947,0.07c-0.631,0.043-1.262,0.107-1.895,0.117
		l-1.902,0.062c-0.637,0-1.264,0.002-1.9-0.006c-2.535-0.036-5.064-0.215-7.576-0.537c-2.514-0.321-5.006-0.776-7.471-1.348
		C116.398,21.412,113.963,20.723,111.559,19.941"/>
</g>
</svg>
